<svg width="21" height="21" viewBox="0 0 21 21" fill="none" xmlns="http://www.w3.org/2000/svg">
<path d="M7.5 6.5V8.5H13.5V6.5C13.5 4.84375 12.1562 3.5 10.5 3.5C8.84375 3.5 7.5 4.84375 7.5 6.5ZM6.5 8.5V6.5C6.5 4.3125 8.28125 2.5 10.5 2.5C12.6875 2.5 14.5 4.3125 14.5 6.5V8.5H15C16.375 8.5 17.5 9.625 17.5 11V16C17.5 17.4062 16.375 18.5 15 18.5H6C4.59375 18.5 3.5 17.4062 3.5 16V11C3.5 9.625 4.59375 8.5 6 8.5H6.5ZM4.5 11V16C4.5 16.8438 5.15625 17.5 6 17.5H15C15.8125 17.5 16.5 16.8438 16.5 16V11C16.5 10.1875 15.8125 9.5 15 9.5H6C5.15625 9.5 4.5 10.1875 4.5 11Z" fill="#6B7280"/>
</svg>
